PathFileType	4	(X/Y/Z)	s01c0302.trc
DataRate	CameraRate	NumFrames	NumMarkers	Units	OrigDataRate	OrigDataStartFrame	OrigNumFrames
200	200	7	48	mm	200	250	2000
Frame#	Time	racr			lacr			c7			jug			rlel			rdr			llel			ldr			s2			lic			ric			lasi			rasi			rpsi			lpsi			rgt			lgt			rth1			rth2			rth3			rth4			rlfc			rsh1			rsh2			rsh3			rsh4			rlmal			rmmal			rcal			rtoe			rmt5			lth1			lth2			lth4			lth3			llfc			lsh1			lsh2			lsh3			lsh4			llmal			lmmal			lcal			ltoe			lmt5			SBIKE			LBIKE			RBIKE			
		X1	Y1	Z1	X2	Y2	Z2	X3	Y3	Z3	X4	Y4	Z4	X5	Y5	Z5	X6	Y6	Z6	X7	Y7	Z7	X8	Y8	Z8	X9	Y9	Z9	X10	Y10	Z10	X11	Y11	Z11	X12	Y12	Z12	X13	Y13	Z13	X14	Y14	Z14	X15	Y15	Z15	X16	Y16	Z16	X17	Y17	Z17	X18	Y18	Z18	X19	Y19	Z19	X20	Y20	Z20	X21	Y21	Z21	X22	Y22	Z22	X23	Y23	Z23	X24	Y24	Z24	X25	Y25	Z25	X26	Y26	Z26	X27	Y27	Z27	X28	Y28	Z28	X29	Y29	Z29	X30	Y30	Z30	X31	Y31	Z31	X32	Y32	Z32	X33	Y33	Z33	X34	Y34	Z34	X35	Y35	Z35	X36	Y36	Z36	X37	Y37	Z37	X38	Y38	Z38	X39	Y39	Z39	X40	Y40	Z40	X41	Y41	Z41	X42	Y42	Z42	X43	Y43	Z43	X44	Y44	Z44	X45	Y45	Z45	X46	Y46	Z46	X47	Y47	Z47	X48	Y48	Z48	
250	1.2500	619.805359	1351.721924	-147.665436	597.839294	1342.539062	-465.033752	557.965698	1431.467041	-306.899811	567.205872	1265.736084	-295.761810	621.624146	1087.065552	-16.844103	734.718933	854.241394	-55.461903	550.932312	1057.633789	-561.878418	722.537109	894.292603	-452.774109	28.546118	1238.852783	-260.711700	199.533783	1224.612671	-435.175781	185.449295	1235.550659	-107.319695	226.793839	1178.711548	-438.199585	203.347900	1183.728149	-130.167389	56.187840	1276.558838	-210.518768	59.135422	1272.552490	-317.363068	126.593704	1126.580933	-68.425621	134.311157	1097.542603	-446.353424	226.907654	1034.379028	-59.840824	288.628723	980.319519	-69.675591	351.738129	916.805481	-80.406464	322.928528	1018.611511	-89.509453	388.208923	810.135864	-100.565002	297.479309	735.278503	-64.203255	235.358856	677.447632	-67.288849	163.932190	624.617920	-77.292946	265.026154	644.991028	-108.608582	57.978657	551.091614	-94.793098	101.928596	537.416565	-172.341049	7.072989	553.061584	-150.594727	193.598389	352.316528	-137.450684	97.113358	402.223145	-71.692200	197.302536	962.025574	-401.850586	283.655243	925.035583	-449.255188	290.327972	955.788696	-428.346069	307.464722	854.181641	-410.950409	371.827667	747.271240	-388.021362	326.743103	646.955994	-430.836487	314.882050	561.213867	-427.912201	299.829895	477.108765	-420.157135	366.100891	556.057617	-394.779846	274.936188	349.004425	-410.074921	291.000153	309.344513	-308.329956	235.680725	307.201996	-366.676819	500.012054	272.041168	-370.039429	396.410370	259.471008	-440.544708	-223.789551	892.931396	-253.192581	-12.689653	84.560448	-456.077332	-21.531202	80.779869	-55.966724	
251	1.2550	621.116333	1351.956787	-148.030838	599.578613	1342.516479	-465.404358	559.497925	1431.751343	-307.691254	568.649414	1266.104614	-296.169617	622.215820	1087.281128	-16.703119	734.916504	854.222290	-55.525940	552.552856	1057.414917	-562.087341	722.984863	893.827637	-452.150177	30.448467	1238.405396	-262.188293	201.648682	1223.837769	-436.579407	186.759811	1236.654785	-108.307930	229.261276	1178.195435	-439.062836	204.849030	1184.515137	-130.932693	57.711674	1276.417603	-212.099594	61.089649	1271.824829	-318.858673	128.381607	1127.613892	-68.965729	136.663666	1096.569092	-446.615204	229.165039	1035.787476	-60.263535	291.318329	982.166870	-69.804878	354.950470	919.127869	-80.221016	325.384735	1020.725281	-89.604607	392.109100	812.653809	-100.190285	301.083435	738.174683	-63.931004	238.626221	680.683411	-67.082840	166.888565	628.211426	-77.143265	268.191711	647.991089	-108.311768	60.715332	555.527588	-94.928040	105.859100	541.632263	-172.022263	9.793052	557.352905	-150.895691	195.512466	356.022186	-137.368927	99.191002	406.296143	-71.583611	199.863098	963.284485	-401.315613	280.655029	927.439270	-454.953217	292.132172	954.399841	-428.419800	308.681702	852.661316	-411.286224	372.669617	745.202454	-388.065918	327.473175	644.882568	-431.085480	315.527740	559.102295	-428.126373	300.485687	475.057343	-420.451050	366.694641	553.946045	-394.872467	275.010071	347.208191	-410.437744	289.249908	303.796295	-307.518951	231.952072	309.374176	-369.553497	499.203674	266.198975	-369.807831	395.417633	255.623566	-440.596069	-223.773743	892.935974	-253.171204	-12.658145	84.507034	-456.071747	-21.520819	80.786362	-55.955452	
252	1.2600	622.293701	1352.264893	-148.390427	601.395203	1342.568970	-465.873322	560.949402	1432.071045	-308.399658	569.991760	1266.354248	-296.755280	622.859802	1087.410767	-16.701962	735.179138	854.207031	-55.575691	554.153198	1057.118408	-562.130676	723.407410	893.232422	-451.454773	32.332943	1237.739502	-263.606598	203.792252	1222.759033	-437.960876	188.062805	1237.579102	-109.316315	231.623611	1177.234863	-439.754669	206.416626	1185.223755	-131.737396	59.177299	1276.060059	-213.716995	62.993275	1270.942871	-320.440338	130.201599	1128.519287	-69.487823	139.122192	1095.432983	-446.958313	231.446274	1037.087402	-60.612095	294.120117	983.972290	-69.834145	358.215820	921.410767	-80.043770	327.851624	1022.594055	-89.716354	396.116302	815.095947	-99.730698	304.768524	741.018799	-63.688519	242.010803	683.895386	-66.879181	169.970810	631.819397	-76.983803	271.134460	651.064697	-108.197327	63.340042	559.455261	-94.679565	108.291458	545.465515	-171.975677	12.490143	561.381226	-151.579147	197.563629	359.778046	-137.276627	101.436462	410.364594	-71.494843	200.674332	963.853271	-405.718781	277.888824	927.541748	-457.301422	294.098328	952.865723	-428.575195	310.135284	851.012451	-411.581024	373.687378	742.990723	-388.082489	328.372498	642.753845	-431.300232	316.266754	556.920654	-428.284485	301.163269	472.882751	-420.630280	367.392426	551.814880	-394.883728	275.195343	345.286743	-410.442047	287.428558	298.293671	-306.703156	228.701965	311.102875	-372.012878	498.263519	260.343445	-369.535217	394.333008	251.776306	-440.647675	-223.765808	892.950195	-253.132187	-12.641091	84.530556	-456.054932	-21.504478	80.775284	-55.944042	
253	1.2650	623.412231	1352.461914	-148.865479	603.027710	1342.605469	-466.198608	562.370972	1432.442139	-309.098297	571.375977	1266.706787	-297.266846	623.579468	1087.495239	-16.826902	735.408752	854.183533	-55.679783	555.956604	1056.723755	-562.136475	723.860291	892.564575	-450.685791	34.270859	1236.823853	-265.221222	206.006546	1221.432739	-439.332794	189.285065	1238.426880	-110.392570	234.158966	1176.221069	-440.548798	207.949493	1185.806274	-132.554550	60.646389	1275.491821	-215.430511	64.887291	1269.879150	-322.076080	132.014267	1129.218994	-70.110321	141.713852	1094.034790	-447.264526	233.789505	1038.314209	-60.930027	296.910767	985.652039	-69.792305	361.595398	923.575623	-79.821922	330.412659	1024.521362	-89.709953	400.232422	817.490356	-99.229622	308.544342	743.878906	-63.349926	245.479965	687.034851	-66.601044	173.240067	635.383606	-76.770500	274.495667	654.012878	-107.882805	66.251129	563.592102	-94.432838	110.427780	548.907898	-171.718384	15.476228	565.752136	-152.339279	199.722748	363.485931	-137.245209	103.828590	414.429016	-71.432915	201.569748	964.348938	-410.477509	275.439972	925.770386	-456.985931	296.305878	951.178345	-428.794342	311.789795	849.212891	-411.832642	374.650452	740.960876	-387.957703	329.353485	640.479675	-431.395264	317.050232	554.641296	-428.398346	301.896240	470.676758	-420.802185	368.051971	549.686096	-394.884247	275.352142	343.278503	-410.424622	285.540161	292.850006	-305.887939	226.237076	312.100891	-373.825958	497.156067	254.412918	-369.376343	393.132111	248.001740	-440.676270	-223.760071	892.942261	-253.049194	-12.623160	84.551407	-456.039398	-21.488588	80.788208	-55.932697	
254	1.2700	624.419434	1352.724243	-149.263275	604.665833	1342.684937	-466.655365	563.772827	1432.881226	-309.788696	572.632446	1267.030884	-297.872223	624.383911	1087.509399	-17.172882	735.627563	854.182922	-55.814548	557.753052	1056.409790	-562.086304	724.332031	891.695251	-449.921112	35.537685	1236.246582	-266.137787	208.297668	1219.873047	-440.772766	190.527374	1239.071045	-111.432251	236.645172	1175.081421	-441.257629	209.496597	1186.300537	-133.402618	62.116844	1274.747314	-217.204483	66.810677	1268.618042	-323.808441	133.805405	1129.747925	-70.939789	144.424637	1092.492920	-447.655548	236.129211	1039.370117	-61.166904	299.793121	987.201172	-69.724869	365.027893	925.661682	-79.424744	332.988403	1026.330811	-89.641594	404.449280	819.921448	-98.649231	312.410431	746.715271	-62.898590	249.092789	690.170593	-66.293732	176.559921	638.905396	-76.616745	278.035889	656.969971	-107.454765	69.170815	567.648071	-94.309746	113.191605	552.534180	-171.560318	18.269251	569.691711	-152.362213	202.015076	367.226044	-137.245667	106.309746	418.468506	-71.372704	202.353775	964.785400	-415.285919	273.391876	922.552490	-454.692902	298.579803	949.267822	-428.911865	313.613068	847.239319	-412.034760	375.784515	738.397949	-387.899597	330.292877	638.018555	-431.501770	317.859528	552.305176	-428.587219	302.545380	468.390778	-420.928925	368.649261	547.489258	-394.876068	275.057068	341.570557	-410.926910	283.588715	287.478760	-305.078705	224.649994	312.275604	-374.939606	495.912964	248.571640	-369.155029	391.870941	244.210098	-440.714783	-223.735321	892.952881	-252.994705	-12.601635	84.571770	-456.022095	-21.481255	80.780151	-55.932533	
255	1.2750	625.286194	1353.073242	-149.684616	606.184875	1342.879395	-467.175446	565.156677	1433.392578	-310.466492	573.949646	1267.555908	-298.442993	625.198059	1087.452148	-17.658278	735.791504	854.232117	-55.967407	559.688293	1056.018921	-561.920044	724.897034	890.845459	-448.964966	37.417641	1234.889771	-267.778381	210.524170	1218.133423	-442.207642	191.711395	1239.602661	-112.520409	239.300842	1173.805054	-442.143372	211.001099	1186.724121	-134.257462	63.562046	1273.799805	-219.078537	68.800949	1267.060791	-325.607513	135.587402	1130.158081	-71.632492	147.164093	1090.725586	-448.031067	238.540939	1040.228760	-61.359722	302.728760	988.665466	-69.546234	368.575653	927.671570	-78.960983	335.648254	1028.052490	-89.449928	408.735046	822.260925	-98.039421	316.376312	749.499207	-62.512787	252.452942	693.276306	-66.167648	180.010178	642.318176	-76.475624	281.614471	659.847839	-107.116302	72.081375	571.755005	-94.061165	116.349388	556.260010	-171.250412	21.336100	573.945190	-152.149582	204.398331	370.839661	-137.138733	108.873688	422.450897	-71.266716	203.465240	964.561096	-419.340271	271.827881	918.315369	-451.108398	300.837463	947.152344	-429.125366	315.509766	845.077637	-412.219116	376.891144	735.849670	-387.971832	331.074768	635.479126	-431.887329	318.566345	549.876770	-428.679657	303.084045	466.014801	-421.063232	369.319946	545.043335	-394.873108	275.010986	339.432983	-410.895416	281.578308	282.193329	-304.280792	223.911850	311.591675	-375.377106	494.436188	242.787750	-368.979614	390.490417	240.447128	-440.748657	-223.689804	892.961487	-252.966675	-12.583008	84.587692	-456.009155	-21.438873	80.780113	-55.922268	
256	1.2800	626.105164	1353.526245	-149.887466	607.587952	1343.166260	-467.599548	566.521057	1433.987671	-311.121521	575.236938	1268.041138	-299.050110	625.879944	1087.417358	-18.286674	735.904419	854.307861	-56.174946	561.635925	1055.714355	-561.711182	725.484741	889.844604	-447.980072	39.390816	1233.365479	-269.563721	212.807968	1216.205444	-443.579773	192.802994	1239.992065	-113.644592	241.919510	1172.372314	-442.831543	212.535431	1186.983398	-135.088684	65.024048	1272.716187	-220.958755	70.775589	1265.401733	-327.403717	137.314102	1130.354980	-72.349152	150.045837	1088.723145	-448.446655	240.944092	1040.974365	-61.427185	305.693085	989.966248	-69.217422	372.145966	929.648438	-78.410828	338.316223	1029.690796	-89.170036	413.050140	824.663940	-97.362434	320.461487	752.320618	-62.078609	256.205627	696.455444	-65.802582	183.549088	645.874512	-76.215904	285.341736	662.781067	-106.595261	75.407860	575.934814	-93.732117	119.319878	561.031738	-172.336487	24.270201	578.249268	-151.766525	207.008606	374.492401	-137.057236	111.669403	426.484711	-71.233742	201.736496	969.321045	-444.538422	270.831329	913.486328	-446.918640	303.132996	944.916260	-429.340363	317.436005	842.712036	-412.373749	378.071228	733.169861	-387.999054	332.037262	632.988525	-432.129730	319.214691	547.353210	-428.779877	303.555786	463.496094	-421.222565	370.206238	541.872925	-394.945221	274.800262	337.293762	-410.892517	279.512939	277.007080	-303.499573	223.594559	310.423035	-375.463379	492.789856	236.997681	-368.898010	388.993652	236.670731	-440.768555	-223.664902	892.976318	-252.945618	-12.565080	84.598061	-456.000671	-21.427109	80.797256	-55.925297	
